<svg width="14" height="15" viewBox="0 0 14 15" fill="none" xmlns="http://www.w3.org/2000/svg">
<path d="M12 3.16666L11.5869 9.85006C11.4813 11.5576 11.4285 12.4114 11.0005 13.0253C10.7889 13.3287 10.5165 13.5849 10.2005 13.7773C9.5614 14.1667 8.706 14.1667 6.99513 14.1667C5.28208 14.1667 4.42553 14.1667 3.78603 13.7766C3.46987 13.5838 3.19733 13.3272 2.98579 13.0232C2.55792 12.4084 2.5063 11.5534 2.40307 9.84346L2 3.16666" stroke="#C93847" stroke-linecap="round"/>
<path d="M1 3.16668H13M9.7038 3.16668L9.24873 2.22783C8.9464 1.60418 8.7952 1.29236 8.53447 1.09788C8.47667 1.05474 8.4154 1.01637 8.35133 0.983143C8.0626 0.833343 7.71607 0.833344 7.023 0.833344C6.31253 0.833344 5.95733 0.833343 5.66379 0.989423C5.59873 1.02402 5.53665 1.06394 5.47819 1.10879C5.21443 1.31114 5.06709 1.63438 4.77241 2.28085L4.36861 3.16668" stroke="#C93847" stroke-linecap="round"/>
<path d="M5.33337 10.5V6.5" stroke="#C93847" stroke-linecap="round"/>
<path d="M8.66663 10.5V6.5" stroke="#C93847" stroke-linecap="round"/>
</svg>
